<svg xmlns="http://www.w3.org/2000/svg" xmlns:xlink="http://www.w3.org/1999/xlink" width="1440" height="900" viewBox="0 0 1440 900">
  <defs>
    <linearGradient id="linear-gradient" x1="0.5" x2="0.5" y2="1" gradientUnits="objectBoundingBox">
      <stop offset="0" stop-color="#f2f4f6"/>
      <stop offset="1" stop-color="#e8eaec"/>
    </linearGradient>
    <linearGradient id="linear-gradient-2" x1="0.5" x2="0.5" y2="1" gradientUnits="objectBoundingBox">
      <stop offset="0" stop-color="#dee0e2"/>
      <stop offset="1" stop-color="#f2f4f6"/>
    </linearGradient>
    <linearGradient id="linear-gradient-3" x1="0.5" x2="0.5" y2="1" gradientUnits="objectBoundingBox">
      <stop offset="0" stop-color="#e8eaec"/>
      <stop offset="1" stop-color="#f2f4f6"/>
    </linearGradient>
    <linearGradient id="linear-gradient-4" y1="1" x2="1" y2="1" gradientUnits="objectBoundingBox">
      <stop offset="0" stop-color="#dee0e2"/>
      <stop offset="1" stop-color="#fff"/>
    </linearGradient>
    <linearGradient id="linear-gradient-5" x1="0.5" x2="0.5" y2="1" gradientUnits="objectBoundingBox">
      <stop offset="0" stop-color="#fff"/>
      <stop offset="1" stop-color="#e8eaec"/>
    </linearGradient>
    <clipPath id="clip-path">
      <path id="Rectangle_81" data-name="Rectangle 81" d="M60,0H780a60,60,0,0,1,60,60v0a0,0,0,0,1,0,0H0a0,0,0,0,1,0,0v0A60,60,0,0,1,60,0Z" transform="translate(340 220)" fill="url(#linear-gradient)"/>
    </clipPath>
    <clipPath id="clip-banner-4">
      <rect width="1440" height="900"/>
    </clipPath>
  </defs>
  <g id="banner-4" clip-path="url(#clip-banner-4)">
    <g id="Group_157" data-name="Group 157" transform="translate(20)">
      <rect id="Rectangle_62" data-name="Rectangle 62" width="10" height="350" transform="translate(222 410)" fill="url(#linear-gradient-2)"/>
      <rect id="Rectangle_61" data-name="Rectangle 61" width="130" height="40" rx="6" transform="translate(162 760)" opacity="0.8" fill="url(#linear-gradient-3)"/>
      <g id="Ellipse_379" data-name="Ellipse 379" transform="translate(160 276)" fill="#3c8cff" stroke="#f8f9fa" stroke-width="2">
        <circle cx="67" cy="67" r="67" stroke="none"/>
        <circle cx="67" cy="67" r="66" fill="none"/>
      </g>
      <path id="Intersection_4" data-name="Intersection 4" d="M16.036,92a67.394,67.394,0,0,1,0-40H143.964a67.394,67.394,0,0,1,0,40Z" transform="translate(147 271)" fill="#f8f9fa"/>
      <rect id="Rectangle_63" data-name="Rectangle 63" width="46" height="85" rx="6" transform="translate(204 501)" fill="url(#linear-gradient-4)"/>
      <rect id="Rectangle_84" data-name="Rectangle 84" width="36" height="75" rx="4" transform="translate(209 506)" fill="#e8eaec"/>
    </g>
    <g id="Group_244" data-name="Group 244">
      <rect id="Rectangle_76" data-name="Rectangle 76" width="670" height="10" transform="translate(425 710)" fill="#e8eaec"/>
      <g id="Rectangle_75" data-name="Rectangle 75" transform="translate(585 290)" fill="#fff" stroke="#e8eaec" stroke-width="4">
        <rect width="350" height="70" stroke="none"/>
        <rect x="2" y="2" width="346" height="66" fill="none"/>
      </g>
      <path id="Rectangle_77" data-name="Rectangle 77" d="M60,0H780a60,60,0,0,1,60,60v0a0,0,0,0,1,0,0H0a0,0,0,0,1,0,0v0A60,60,0,0,1,60,0Z" transform="translate(340 210)" fill="url(#linear-gradient-5)"/>
      <g id="Mask_Group_3" data-name="Mask Group 3" transform="translate(0 -10)" clip-path="url(#clip-path)">
        <line id="Line_36" data-name="Line 36" x2="840" transform="translate(340 270)" fill="none" stroke="#dee0e2" stroke-width="2"/>
      </g>
      <path id="Subtraction_5" data-name="Subtraction 5" d="M45,520H31V20.229c0-.076,0-.152,0-.229A30.034,30.034,0,0,0,1-10H30l8,8,8-8H74.651A30.106,30.106,0,0,0,45,20ZM76-9.982h0c-.217-.008-.437-.013-.653-.016L76-10v.016Zm-76,0H0V-10H.773C.544-10,.292-9.993,0-9.984Z" transform="translate(370 280)" fill="url(#linear-gradient-2)"/>
      <path id="Subtraction_7" data-name="Subtraction 7" d="M45,520H31V20.229c0-.076,0-.152,0-.229A30.034,30.034,0,0,0,1-10H30l8,8,8-8H74.651A30.106,30.106,0,0,0,45,20ZM76-9.982h0c-.217-.008-.437-.013-.653-.016L76-10v.016Zm-76,0H0V-10H.773C.544-10,.292-9.993,0-9.984Z" transform="translate(1073.998 280)" fill="url(#linear-gradient-2)"/>
      <rect id="Rectangle_90" data-name="Rectangle 90" width="4" height="20" transform="translate(615 270)" fill="#dee0e2"/>
      <rect id="Rectangle_91" data-name="Rectangle 91" width="4" height="20" transform="translate(901 270)" fill="#dee0e2"/>
    </g>
  </g>
</svg>
