<svg xmlns="http://www.w3.org/2000/svg" xmlns:xlink="http://www.w3.org/1999/xlink" width="1440" height="900" viewBox="0 0 1440 900">
  <defs>
    <clipPath id="clip-banner-6">
      <rect width="1440" height="900"/>
    </clipPath>
  </defs>
  <g id="banner-6" clip-path="url(#clip-banner-6)">
    <g id="Group_213" data-name="Group 213">
      <circle id="Ellipse_418" data-name="Ellipse 418" cx="15" cy="15" r="15" transform="translate(1337 422)" fill="#ffc250"/>
      <circle id="Ellipse_420" data-name="Ellipse 420" cx="50" cy="50" r="50" transform="translate(600 720)" fill="#5c5e60"/>
      <circle id="Ellipse_423" data-name="Ellipse 423" cx="50" cy="50" r="50" transform="translate(1030 720)" fill="#5c5e60"/>
      <path id="Rectangle_99" data-name="Rectangle 99" d="M0,0H610A140,140,0,0,1,750,140V340a40,40,0,0,1-40,40H0a0,0,0,0,1,0,0V0A0,0,0,0,1,0,0Z" transform="translate(630 399)" fill="#ffc250"/>
      <path id="Rectangle_98" data-name="Rectangle 98" d="M0,0H40A140,140,0,0,1,180,140V469a0,0,0,0,1,0,0H0a0,0,0,0,1,0,0V0A0,0,0,0,1,0,0Z" transform="translate(630 310)" fill="#ffc250"/>
      <circle id="Ellipse_415" data-name="Ellipse 415" cx="50" cy="50" r="50" transform="translate(770 720)" fill="#5c5e60"/>
      <circle id="Ellipse_421" data-name="Ellipse 421" cx="50" cy="50" r="50" transform="translate(1200 720)" fill="#5c5e60"/>
      <circle id="Ellipse_417" data-name="Ellipse 417" cx="35" cy="35" r="35" transform="translate(785 735)" fill="#caccce"/>
      <circle id="Ellipse_424" data-name="Ellipse 424" cx="35" cy="35" r="35" transform="translate(1215 735)" fill="#caccce"/>
      <path id="Rectangle_105" data-name="Rectangle 105" d="M40,0H440A100,100,0,0,1,540,100v90a10,10,0,0,1-10,10H10A10,10,0,0,1,0,190V40A40,40,0,0,1,40,0Z" transform="translate(790 439)" fill="#d2e6ff"/>
      <circle id="Ellipse_427" data-name="Ellipse 427" cx="10" cy="10" r="10" transform="translate(810 760)" fill="#dee0e2"/>
      <circle id="Ellipse_428" data-name="Ellipse 428" cx="10" cy="10" r="10" transform="translate(1240 760)" fill="#dee0e2"/>
      <path id="Path_151" data-name="Path 151" d="M3123.74,435V750a60,60,0,0,1-60,60h-80a60,60,0,0,1-60-60V435a95,95,0,0,1,95-95h10A95,95,0,0,1,3123.74,435Z" transform="translate(-2393.74 -30)" fill="#fbd976"/>
      <g id="Group_164" data-name="Group 164" transform="translate(-1884.667 -97.03)">
        <path id="Path_152" data-name="Path 152" d="M2506.667,439.03v3a3,3,0,0,0,6,0v-3Z" transform="translate(-1)" fill="#fff"/>
        <path id="Path_153" data-name="Path 153" d="M2520.667,431.03h-22a3,3,0,0,0,0,6h22a3,3,0,0,0,0-6Z" fill="#fff"/>
      </g>
      <g id="Group_165" data-name="Group 165" transform="translate(7.833 159.818)">
        <path id="Path_160" data-name="Path 160" d="M2532.713,403.212l-14.879,20.111,22,3.889Z" transform="translate(-1890.667 -265.03)" fill="#fbd976"/>
        <path id="Path_161" data-name="Path 161" d="M2531.792,407.151l-7.008,10.949,9.848,1.736Z" transform="translate(-1890.47 -264.877)" fill="#ffc250"/>
      </g>
      <g id="Group_166" data-name="Group 166" transform="translate(3.833 159.818)">
        <path id="Path_162" data-name="Path 162" d="M2486.954,403.212l-7.121,24,22-3.889Z" transform="translate(-1890.667 -265.03)" fill="#fbd976"/>
        <path id="Path_163" data-name="Path 163" d="M2487.541,407.151l-2.84,12.686,9.848-1.736Z" transform="translate(-1890.529 -264.877)" fill="#ffc250"/>
      </g>
      <g id="Group_163" data-name="Group 163" transform="translate(0 5)">
        <g id="Group_159" data-name="Group 159" transform="translate(4 -10)">
          <line id="Line_37" data-name="Line 37" x1="8" y2="8" transform="translate(678 727)" fill="none" stroke="#ff8c34" stroke-linecap="round" stroke-width="4"/>
          <line id="Line_38" data-name="Line 38" x1="8" y2="8" transform="translate(688 727)" fill="none" stroke="#ff8c34" stroke-linecap="round" stroke-width="4"/>
          <line id="Line_39" data-name="Line 39" x1="8" y2="8" transform="translate(698 727)" fill="none" stroke="#ff8c34" stroke-linecap="round" stroke-width="4"/>
        </g>
        <g id="Group_160" data-name="Group 160" transform="translate(-10 -10)">
          <line id="Line_37-2" data-name="Line 37" x1="8" y2="8" transform="translate(550 727)" fill="none" stroke="#ff8c34" stroke-linecap="round" stroke-width="4"/>
          <line id="Line_38-2" data-name="Line 38" x1="8" y2="8" transform="translate(560 727)" fill="none" stroke="#ff8c34" stroke-linecap="round" stroke-width="4"/>
          <line id="Line_39-2" data-name="Line 39" x1="8" y2="8" transform="translate(570 727)" fill="none" stroke="#ff8c34" stroke-linecap="round" stroke-width="4"/>
        </g>
      </g>
      <path id="Rectangle_100" data-name="Rectangle 100" d="M40,0h60a40,40,0,0,1,40,40V190a10,10,0,0,1-10,10H10A10,10,0,0,1,0,190V40A40,40,0,0,1,40,0Z" transform="translate(555 439)" fill="#d2e6ff"/>
    </g>
  </g>
</svg>
